<svg xmlns="http://www.w3.org/2000/svg" viewBox="0 0 48 48"><radialGradient id="a" cx="24.371" cy="44.5" r="22.134" gradientUnits="userSpaceOnUse"><stop offset="0" stop-color="#0ba852"/><stop offset=".999" stop-color="#0f7211"/></radialGradient><path fill="url(#a)" d="M43 46s.054-9.133-6.089-10.749C33.774 34.426 24.018 32 24.001 32c-.017 0-9.774 2.426-12.91 3.251C4.947 36.867 5 46 5 46h38z"/><radialGradient id="b" cx="-1073.429" cy="-223.475" r="4.366" gradientTransform="matrix(-.847 .5316 -.6454 -1.0285 -1042.889 370.878)" gradientUnits="userSpaceOnUse"><stop offset="0" stop-color="#aa8765"/><stop offset=".089" stop-color="#a17c57"/><stop offset=".27" stop-color="#926941"/><stop offset=".385" stop-color="#8c6239"/><stop offset=".516" stop-color="#875d34"/><stop offset=".68" stop-color="#774e27"/><stop offset=".848" stop-color="#603813"/></radialGradient><path fill="url(#b)" d="M10.792 22.907s1.118 3.736-.547 5.15c-.95.874-.177 1.483.278 1.499.559.019.784-.013 1.691-.305-.276.824-.648 1.204-1.028 1.52-.664.551-.065.926.544.839.61-.086 1.494-.539 1.696-.731-.033.463-.216.783-.377 1.035s.113.737.704.522c.343-.125.721-.397 1.197-.906.029.29.266.818.532.808.708-.027 1.329-.813 1.562-1.105l-5.568-8.587-.684.261z"/><radialGradient id="c" cx="753.184" cy="459.412" r="4.366" gradientTransform="matrix(.8731 .4875 .592 -1.0601 -892.095 149.784)" gradientUnits="userSpaceOnUse"><stop offset="0" stop-color="#aa8765"/><stop offset=".089" stop-color="#a17c57"/><stop offset=".27" stop-color="#926941"/><stop offset=".385" stop-color="#8c6239"/><stop offset=".516" stop-color="#875d34"/><stop offset=".68" stop-color="#774e27"/><stop offset=".848" stop-color="#603813"/></radialGradient><path fill="url(#c)" d="M36.857 22.803s-.926 3.788.81 5.115c1.508 1.153.252 1.472-.201 1.511-.557.048-.783.027-1.705-.218.318.809.708 1.17 1.105 1.465.691.516.113.921-.501.866-.613-.055-1.52-.462-1.731-.643.056.46.256.771.429 1.014s-.075.742-.676.557c-.349-.107-.74-.359-1.242-.843-.014.291-.224.831-.49.834-.708.01-1.369-.744-1.616-1.023l5.122-8.86.696.225z"/><radialGradient id="d" cx="58.337" cy="22.554" r="1.844" gradientTransform="matrix(.9227 .1748 -.4139 2.1652 -8.886 -36.592)" gradientUnits="userSpaceOnUse"><stop offset="0" stop-color="#ffe16e"/><stop offset=".461" stop-color="#ffd226"/><stop offset=".741" stop-color="#f8c21d"/><stop offset=".999" stop-color="#f0af13"/></radialGradient><path fill="url(#d)" d="M35.01 19.762c.789-.24 2.696-.087 2.762 2.116.062 2.083-.482 3.033-1.206 3.927-.811 1.003-2.27.996-2.15.199.121-.797.594-6.242.594-6.242z"/><radialGradient id="e" cx="-561.29" cy="22.554" r="1.844" gradientTransform="matrix(-.9179 .1748 .4118 2.1652 -512.558 71.697)" gradientUnits="userSpaceOnUse"><stop offset="0" stop-color="#ffe16e"/><stop offset=".461" stop-color="#ffd226"/><stop offset=".741" stop-color="#f8c21d"/><stop offset=".999" stop-color="#f0af13"/></radialGradient><path fill="url(#e)" d="M12.535 19.762c-.785-.24-2.682-.087-2.748 2.116-.062 2.083.48 3.033 1.199 3.927.807 1.003 2.258.996 2.139.199-.12-.797-.59-6.242-.59-6.242z"/><radialGradient id="f" cx="94.778" cy="1116.206" r="14.45" fx="94.702" fy="1110.016" gradientTransform="matrix(.8804 0 0 1.0707 -59.543 -1174.804)" gradientUnits="userSpaceOnUse"><stop offset="0" stop-color="#ffe16e"/><stop offset=".629" stop-color="#ffd226"/><stop offset=".75" stop-color="#fdcd23"/><stop offset=".899" stop-color="#f6bd1b"/><stop offset=".999" stop-color="#f0af13"/></radialGradient><path fill="url(#f)" d="M36.446 19.894c0 2.859-.646 5.533-1.771 7.82C32.484 32.169 28.478 36 23.9 36c-4.579 0-8.585-3.831-10.775-8.286-1.125-2.287-1.771-4.962-1.771-7.82 0-.628.017-1.221.05-1.783.192-3.236.922-5.466 2.056-7.529 2.25-4.096 6.086-5.946 10.44-5.946 4.331 0 8.149 1.821 10.404 5.88 1.352 2.435 2.142 5.14 2.142 9.378z"/><radialGradient id="g" cx="-114.702" cy="-58.426" r="9.636" gradientTransform="matrix(-.0114 .9999 -1.2141 -.0139 -48.344 126.65)" gradientUnits="userSpaceOnUse"><stop offset="0" stop-color="#aa8765"/><stop offset=".145" stop-color="#a17c57"/><stop offset=".441" stop-color="#926941"/><stop offset=".629" stop-color="#8c6239"/><stop offset=".734" stop-color="#875d34"/><stop offset=".865" stop-color="#774e27"/><stop offset=".999" stop-color="#603813"/></radialGradient><path fill="url(#g)" d="M37.268 12.348c.373-.308.529-.828.502-1.28-.16-2.655-1.974-5.615-4.877-6.309a5.211 5.211 0 0 1-.472-.138c.393-.833.151-1.635-1.089-1.565-3.497.197-2.534-1.54-5.848-.855a3.93 3.93 0 0 0-1.196.361c-2.532-1.409-4.859-.145-6.797.96-1.3.741-2.302.735-3.366.79-1.402.072-1.069 1.531-.494 1.733-1.62.745-2.973 2.591-3.256 3.273-.245.588.182 1.246.717 1.018-.417.634-.636 1.047-.636 2.044-.831 4.027.056 9.697 2.065 12.515-.81-3.921-.509-5.549.13-7.437 3.103-9.137 7.826-5.423 8.208-5.144 1.651 1.209 4.397 1.177 5.904.18.262-.173 5.055-4.636 8.394 4.574.445 1.227.584 4.855.219 8.087 3.312-4.549 2.232-11.317 1.892-12.807z"/><radialGradient id="h" cx="23.721" cy="1292.717" r="11.327" gradientTransform="matrix(1 0 0 .8271 0 -1055.776)" gradientUnits="userSpaceOnUse"><stop offset="0" stop-color="#aa8765"/><stop offset=".145" stop-color="#a17c57"/><stop offset=".441" stop-color="#926941"/><stop offset=".629" stop-color="#8c6239"/><stop offset=".734" stop-color="#875d34"/><stop offset=".865" stop-color="#774e27"/><stop offset=".999" stop-color="#603813"/></radialGradient><path fill="url(#h)" d="M35.576 23.757c1.408-3.039 1.162-6.415.881-7.634-1.118-4.86-4.7-6.804-6.658-7.315-1.523-.397-2.673-.186-3.402.559-1.263 1.291-3.568 1.473-4.909-.073-.876-1.01-2.106-.672-3.159-.365-1.939.567-5.954 2.795-6.95 7.169-.432 1.895-.591 4.545 1.089 8.716.018.026.035.056.053.081-.81-3.921-.51-5.549.129-7.437 3.103-9.137 7.826-5.423 8.208-5.144 1.651 1.209 4.397 1.177 5.904.18.262-.173 5.055-4.636 8.394 4.574.445 1.227.703 3.579.338 6.811.026-.035.056-.084.082-.122z"/><radialGradient id="i" cx="23.713" cy="1292.991" r="11.146" gradientTransform="matrix(1 0 0 .8271 0 -1055.726)" gradientUnits="userSpaceOnUse"><stop offset="0" stop-color="#9f7c59"/><stop offset=".081" stop-color="#9b7652"/><stop offset=".416" stop-color="#8c633c"/><stop offset=".629" stop-color="#865c34"/><stop offset=".744" stop-color="#81572f"/><stop offset=".886" stop-color="#714822"/><stop offset=".999" stop-color="#603813"/></radialGradient><path fill="url(#i)" d="M18.042 9.367c-1.792.607-5.642 2.697-6.587 7.05-.408 1.879-.533 4.417 1.021 8.406.015.022.03.046.044.063-.709-3.422-.56-5.251.148-7.363 1.05-3.136 2.378-4.8 3.774-5.61 2.048-1.166 3.977.208 4.426.568 1.617 1.298 4.279 1.24 5.846.222.087-.056.368-.293.779-.554 1.289-.821 3.399-1.501 5.505 1.034.738.889 1.472 2.145 2.119 3.904.479 1.295.741 3.624.377 6.792.023-.033.051-.078.074-.113 1.23-2.689 1.079-5.867.78-7.235-.97-4.443-4.187-6.366-6.081-7.088-1.6-.61-2.791-.445-3.589.259-.421.371-.884.698-1.332.879-1.133.454-2.722.499-3.883-.791-1.03-1.147-2.313-.798-3.421-.423z"/><radialGradient id="j" cx="23.705" cy="1293.265" r="10.976" gradientTransform="matrix(1 0 0 .8271 0 -1055.677)" gradientUnits="userSpaceOnUse"><stop offset="0" stop-color="#95704e"/><stop offset=".021" stop-color="#946f4c"/><stop offset=".392" stop-color="#855d36"/><stop offset=".629" stop-color="#7f562e"/><stop offset=".759" stop-color="#7a5129"/><stop offset=".92" stop-color="#6a421c"/><stop offset=".999" stop-color="#603813"/></radialGradient><path fill="url(#j)" d="M17.755 9.804c-1.648.633-5.331 2.599-6.223 6.931-.385 1.862-.474 4.306.954 8.115.013.018.024.036.035.045-.608-2.924-.609-4.969.166-7.308.971-2.932 2.273-4.639 3.79-5.558 1.879-1.112 3.749.07 4.403.618 1.609 1.35 4.164 1.307 5.788.263.116-.074.396-.299.779-.555 1.424-.95 3.406-1.512 5.473.905.759.887 1.519 2.124 2.16 3.844.514 1.363.777 3.669.414 6.775l.065-.102c1.052-2.339.997-5.319.681-6.837-.836-4.022-3.673-5.948-5.504-6.861-1.679-.837-2.915-.708-3.776-.041-.492.382-.983.763-1.411.952-1.048.457-2.757.763-4.11-.703-1.184-1.284-2.521-.93-3.684-.483z"/><radialGradient id="k" cx="23.697" cy="1293.535" r="10.804" gradientTransform="matrix(1 0 0 .8271 0 -1055.629)" gradientUnits="userSpaceOnUse"><stop offset="0" stop-color="#8a6542"/><stop offset=".346" stop-color="#7f5731"/><stop offset=".629" stop-color="#795029"/><stop offset=".776" stop-color="#744b24"/><stop offset=".96" stop-color="#643c17"/><stop offset=".999" stop-color="#603813"/></radialGradient><path fill="url(#k)" d="M17.468 10.242c-1.507.649-5.019 2.501-5.86 6.811-.361 1.846-.414 4.188.888 7.815.01.015.018.025.025.027-.507-2.426-.658-4.68.181-7.245.893-2.728 2.168-4.479 3.806-5.506 1.711-1.058 3.524-.072 4.379.668 1.61 1.393 4.049 1.376 5.73.305.145-.092.422-.308.779-.556 1.556-1.084 3.415-1.524 5.441.776.78.885 1.562 2.104 2.201 3.783.545 1.432.818 3.717.456 6.759a7.09 7.09 0 0 0 .056-.09c.875-1.99.907-4.773.577-6.44-.713-3.599-3.154-5.546-4.927-6.634-1.754-1.077-3.043-.975-3.963-.341-.566.39-1.083.828-1.489 1.024-.963.459-2.791 1.026-4.338-.614-1.334-1.421-2.724-1.066-3.942-.542z"/><radialGradient id="l" cx="23.688" cy="1293.801" r="10.631" gradientTransform="matrix(1 0 0 .8271 0 -1055.58)" gradientUnits="userSpaceOnUse"><stop offset="0" stop-color="#805a36"/><stop offset=".285" stop-color="#79512b"/><stop offset=".629" stop-color="#734a23"/><stop offset=".803" stop-color="#6e451e"/><stop offset=".999" stop-color="#603813"/></radialGradient><path fill="url(#l)" d="M17.181 10.679c-1.369.655-4.707 2.404-5.496 6.692-.337 1.829-.357 4.061.819 7.507.008.011.013.015.016.008-.407-1.928-.703-4.381.201-7.173.817-2.524 2.063-4.318 3.821-5.454 1.542-1.004 3.303-.217 4.356.718 1.613 1.433 3.935 1.445 5.673.347.174-.11.448-.317.779-.557 1.686-1.223 3.426-1.538 5.409.647.802.883 1.608 2.083 2.242 3.723.58 1.5.855 3.764.493 6.742l.047-.079c.697-1.64.819-4.225.477-6.043-.598-3.174-2.629-5.154-4.349-6.407-1.822-1.326-3.173-1.245-4.149-.64-.641.397-1.182.894-1.568 1.096-.878.462-2.826 1.29-4.566-.525-1.489-1.558-2.936-1.209-4.205-.602z"/><radialGradient id="m" cx="23.678" cy="1294.067" r="10.46" gradientTransform="matrix(1 0 0 .8271 0 -1055.532)" gradientUnits="userSpaceOnUse"><stop offset="0" stop-color="#754f2a"/><stop offset=".151" stop-color="#724b26"/><stop offset=".629" stop-color="#6d441e"/><stop offset=".847" stop-color="#683f19"/><stop offset=".999" stop-color="#603813"/></radialGradient><path fill="url(#m)" d="M16.894 11.116c-1.235.654-4.396 2.306-5.133 6.573-.314 1.813-.299 3.933.751 7.197.005.007.007.005.007-.01-.306-1.43-.747-4.08.22-7.098.743-2.319 1.958-4.157 3.837-5.402 1.374-.95 3.084-.366 4.332.767 1.619 1.471 3.822 1.516 5.615.388a12.6 12.6 0 0 0 .779-.558c1.811-1.366 3.438-1.553 5.378.517.825.88 1.658 2.061 2.283 3.662.617 1.567.892 3.814.531 6.728.01-.02.027-.046.038-.068.519-1.29.727-3.679.377-5.649-.489-2.748-2.096-4.769-3.772-6.18-1.882-1.585-3.304-1.518-4.336-.94-.717.401-1.282.959-1.646 1.169-.793.465-2.861 1.553-4.794-.437-1.642-1.692-3.15-1.356-4.467-.659z"/><radialGradient id="n" cx="23.667" cy="1294.332" r="10.293" gradientTransform="matrix(1 0 0 .8271 0 -1055.484)" gradientUnits="userSpaceOnUse"><stop offset="0" stop-color="#6b431f"/><stop offset=".629" stop-color="#663e18"/><stop offset=".975" stop-color="#613914"/><stop offset=".999" stop-color="#603813"/></radialGradient><path fill="url(#n)" d="M16.607 11.554c-1.106.648-4.084 2.208-4.769 6.454-.29 1.796-.24 3.805.683 6.887.003.004.002-.005-.002-.028-.205-.932-.784-3.777.238-7.026.673-2.113 1.853-3.997 3.853-5.35 1.205-.896 2.869-.518 4.309.817 1.626 1.508 3.71 1.588 5.557.43.232-.145.497-.338.779-.559 1.931-1.516 3.452-1.569 5.346.388.848.876 1.705 2.04 2.324 3.602.652 1.635.929 3.858.569 6.71.007-.016.022-.038.029-.056.341-.941.629-3.128.277-5.249-.386-2.322-1.557-4.387-3.195-5.953-1.933-1.849-3.435-1.793-4.523-1.24-.793.403-1.381 1.024-1.724 1.241-.709.467-2.895 1.817-5.021-.348-1.797-1.831-3.37-1.517-4.73-.72z"/><path fill="#603813" d="M12.521 24.895s-2.13-7.978 4.124-12.288c1.037-.842 2.657-.672 4.285.867 1.858 1.756 4.139 1.661 6.278-.089 2.045-1.673 3.467-1.588 5.314.259s3.652 4.954 2.972 10.235c.292-.972 1.16-6.789-2.421-10.624-3.481-3.729-5.767-.745-6.513-.227-.624.47-2.93 2.08-5.249-.259-1.949-1.966-3.597-1.685-4.99-.778-1.394.908-6.489 3.119-3.8 12.904z"/><path fill="#f4b922" d="M12.521 24.895c.041-3.086-.186-6.65 4.253-10.441 1.025-.833 2.559-.687 4.169.834 1.836 1.736 4.118 1.859 6.232.13 2.021-1.654 3.402-1.798 4.982-.316 1.882 1.767 3.199 3.868 3.337 8.777.288-.961 1.101-6.126-2.438-9.917-3.441-3.686-5.701-.737-6.437-.224-.617.464-2.896 2.056-5.188-.256-1.926-1.944-3.449-1.754-4.826-.858-1.378.896-6.222 5.029-4.084 12.271z"/><path fill="#dba31f" d="M12.521 24.895c.035-2.645-.432-6.772 4.256-10.63 1.025-.833 2.568-.688 4.177.833 1.836 1.736 4.118 1.859 6.232.13 2.021-1.654 3.406-1.766 5.02-.234 1.874 1.775 3.205 3.924 3.288 8.885.288-.961 1.099-6.126-2.44-9.917-3.441-3.686-5.701-.737-6.437-.224-.617.464-2.896 2.056-5.188-.256-1.926-1.944-3.449-1.754-4.826-.858-1.376.896-6.22 5.029-4.082 12.271z"/><path fill="#c18e1b" d="M12.521 24.895c.029-2.204-.677-6.894 4.26-10.818 1.025-.833 2.576-.689 4.186.832 1.836 1.736 4.118 1.859 6.232.13 2.021-1.654 3.409-1.733 5.059-.152 1.866 1.783 3.208 3.979 3.236 8.992.288-.961 1.1-6.125-2.439-9.916-3.441-3.686-5.701-.737-6.437-.224-.617.464-2.896 2.056-5.188-.256-1.926-1.944-3.449-1.754-4.826-.858-1.377.895-6.221 5.028-4.083 12.27z"/><path fill="#a87818" d="M12.521 24.895c.023-1.764-.922-7.015 4.263-11.007 1.025-.833 2.585-.69 4.194.831 1.836 1.736 4.118 1.859 6.232.13 2.021-1.654 3.413-1.7 5.098-.071 1.858 1.792 3.211 4.036 3.186 9.101.288-.961 1.1-6.126-2.439-9.917-3.441-3.686-5.701-.737-6.437-.224-.617.464-2.896 2.056-5.188-.256-1.926-1.944-3.449-1.754-4.826-.858-1.377.896-6.221 5.029-4.083 12.271z"/><path fill="#8e6215" d="M12.521 24.895c.017-1.323-1.168-7.137 4.267-11.196 1.025-.833 2.593-.692 4.203.83 1.836 1.736 4.118 1.859 6.232.13 2.021-1.654 3.416-1.667 5.136.011 1.85 1.8 3.215 4.092 3.135 9.209.288-.961 1.1-6.126-2.439-9.917-3.441-3.686-5.701-.737-6.437-.224-.617.464-2.896 2.056-5.188-.256-1.926-1.944-3.449-1.754-4.826-.858-1.377.896-6.221 5.029-4.083 12.271z"/><path fill="#754c12" d="M12.521 24.895c.012-.882-1.413-7.259 4.27-11.384 1.025-.833 2.602-.693 4.211.829 1.836 1.736 4.118 1.859 6.232.13 2.021-1.654 3.42-1.635 5.175.093 1.842 1.809 3.219 4.147 3.085 9.316.288-.961 1.1-6.125-2.439-9.916-3.441-3.686-5.701-.737-6.437-.224-.617.464-2.896 2.056-5.188-.256-1.926-1.944-3.449-1.754-4.826-.858-1.377.895-6.221 5.028-4.083 12.27z"/><path fill="#5b370e" d="M12.521 24.895c.006-.441-1.659-7.38 4.273-11.573 1.025-.833 2.611-.694 4.22.827 1.836 1.736 4.118 1.859 6.232.13 2.021-1.654 3.423-1.602 5.214.174 1.834 1.817 3.222 4.205 3.034 9.426.288-.961 1.1-6.127-2.439-9.918-3.441-3.686-5.701-.737-6.437-.224-.617.464-2.896 2.056-5.188-.256-1.926-1.944-3.449-1.754-4.826-.858-1.377.897-6.221 5.03-4.083 12.272z"/><path fill="#42210b" d="M12.521 24.895s-1.904-7.502 4.277-11.762c1.025-.833 2.619-.695 4.228.826 1.836 1.736 4.118 1.859 6.232.13 2.021-1.654 3.427-1.569 5.252.256s3.227 4.261 2.984 9.534c.288-.961 1.099-6.127-2.44-9.918-3.441-3.686-5.701-.737-6.437-.224-.617.464-2.896 2.056-5.188-.256-1.926-1.944-3.449-1.754-4.826-.858-1.376.897-6.22 5.03-4.082 12.272z"/><radialGradient id="o" cx="-216.077" cy="1033.928" r="1.709" gradientTransform="matrix(1.37 0 0 1.3195 320.053 -1337.705)" gradientUnits="userSpaceOnUse"><stop offset=".245" stop-color="#cc9000"/><stop offset=".415" stop-color="#d09504" stop-opacity=".822"/><stop offset=".627" stop-color="#dca50f" stop-opacity=".599"/><stop offset=".851" stop-color="#eebd20" stop-opacity=".363"/><stop offset="1" stop-color="#fed12e" stop-opacity="0"/></radialGradient><path fill="url(#o)" d="M24.01 27.243c-.788 0-1.429-.2-1.825-.417-.291-.16-.586-.086-.393.415.261.679.858 1.48 2.218 1.48 1.337 0 1.936-.773 2.204-1.445.206-.516-.091-.568-.344-.449a4.29 4.29 0 0 1-1.86.416z"/><radialGradient id="p" cx="-205.087" cy="1366.788" r="1.761" gradientTransform="matrix(1.4827 .036 -.0172 .7101 351.695 -936.767)" gradientUnits="userSpaceOnUse"><stop offset=".479" stop-color="#fed53f"/><stop offset=".926" stop-color="#fed53f" stop-opacity=".141"/><stop offset="1" stop-color="#fed53f" stop-opacity="0"/></radialGradient><path fill="url(#p)" d="M26.874 26.473c-.018.757-1.286 1.339-2.831 1.302-1.545-.038-2.782-.681-2.764-1.438s1.286-1.339 2.831-1.302c1.545.038 2.782.682 2.764 1.438z"/><radialGradient id="q" cx="24.117" cy="1632.354" r="1.411" gradientTransform="matrix(1 0 0 .6596 0 -1050.344)" gradientUnits="userSpaceOnUse"><stop offset=".004" stop-color="#fff4c9"/><stop offset="1" stop-color="#fff4c9" stop-opacity="0"/></radialGradient><ellipse cx="24.117" cy="26.357" fill="url(#q)" rx="1.411" ry=".931"/><path fill="#805b2a" d="M14.322 22.228c-.023.367.055.336.196.519 0 0 1.594 2.204 6.402.695.348-.124.598-.36.562-.644-.616-4.882-6.783-4.165-7.16-.57z"/><path fill="#fff" d="M14.393 22.008c-.12.258-.082.464 0 .672.343.906 3.095 4.131 6.809.745.277-.239.321-.45.252-.748-.069-.299-1.031-2.739-3.552-2.739-2.497 0-3.301 1.719-3.509 2.07z"/><linearGradient id="r" x1="15.901" x2="20.085" y1="1174.007" y2="1174.007" gradientTransform="translate(0 -1152)" gradientUnits="userSpaceOnUse"><stop offset="0" stop-color="#c69c6d"/><stop offset="1" stop-color="#754c24"/></linearGradient><circle cx="17.993" cy="22.007" r="2.092" fill="url(#r)"/><radialGradient id="s" cx="17.993" cy="1174.007" r="1.053" gradientTransform="translate(0 -1152)" gradientUnits="userSpaceOnUse"><stop offset="0" stop-color="#1c1911"/><stop offset=".999" stop-color="#171714"/></radialGradient><circle cx="17.993" cy="22.007" r="1.053" fill="url(#s)"/><circle cx="17.484" cy="21.464" r=".494" fill="#fff"/><path fill="#805b2a" d="M33.574 22.228c.023.367-.055.336-.196.519 0 0-1.594 2.204-6.402.695-.348-.124-.598-.36-.562-.644.616-4.882 6.783-4.165 7.16-.57z"/><path fill="#fff" d="M33.503 22.008c.12.258.082.464 0 .672-.343.906-3.095 4.131-6.809.745-.277-.239-.321-.45-.252-.748.069-.299 1.031-2.739 3.552-2.739 2.496 0 3.301 1.719 3.509 2.07z"/><linearGradient id="t" x1="73.432" x2="77.616" y1="-51.87" y2="-51.87" gradientTransform="matrix(1 0 0 -1 -45.622 -29.863)" gradientUnits="userSpaceOnUse"><stop offset="0" stop-color="#c69c6d"/><stop offset="1" stop-color="#754c24"/></linearGradient><circle cx="29.902" cy="22.007" r="2.092" fill="url(#t)"/><radialGradient id="u" cx="-1598.476" cy="1174.007" r="1.053" gradientTransform="matrix(-1 0 0 1 -1568.574 -1152)" gradientUnits="userSpaceOnUse"><stop offset="0" stop-color="#1c1911"/><stop offset=".999" stop-color="#171714"/></radialGradient><circle cx="29.902" cy="22.007" r="1.053" fill="url(#u)"/><circle cx="29.422" cy="21.464" r=".494" fill="#fff"/><path d="M32.167 18.379a6.762 6.762 0 0 0-4.06.234.754.754 0 1 1-.419-1.442l.017-.003a7.875 7.875 0 0 1 4.712.517.37.37 0 0 1-.242.696l-.008-.002zm-16.334-.695a7.883 7.883 0 0 1 4.712-.517l.013.003a.754.754 0 1 1-.415 1.443 6.762 6.762 0 0 0-4.06-.234l-.007.002a.371.371 0 0 1-.243-.697z" fill="#805b2a"/><radialGradient id="v" cx="-118.972" cy="1179.523" r="2.561" gradientTransform="matrix(1.1109 0 0 1.3094 156.193 -1514.33)" gradientUnits="userSpaceOnUse"><stop offset=".696" stop-color="#cc9000"/><stop offset="1" stop-color="#cc9000" stop-opacity="0"/></radialGradient><path fill="url(#v)" d="M24 32.091c-2.85 0-2.946-1.638-2.946-1.638s.07 3.276 2.946 3.276 2.946-3.276 2.946-3.276-.096 1.638-2.946 1.638z"/><radialGradient id="w" cx="222.445" cy="2045.635" r="3.248" fx="222.443" fy="2045.757" gradientTransform="matrix(.7953 0 0 .5951 -152.91 -1186.311)" gradientUnits="userSpaceOnUse"><stop offset=".371" stop-color="#ffd226"/><stop offset=".948" stop-color="#ffe16e"/><stop offset="1" stop-color="#ffe16e" stop-opacity="0"/></radialGradient><path fill="url(#w)" d="M27.094 30.961s.039 1.526-3.094 1.526-3.094-1.526-3.094-1.526.687.769 3.094.769 3.094-.769 3.094-.769z"/><radialGradient id="x" cx="151.665" cy="2520.675" r="3.162" gradientTransform="matrix(.8379 0 0 .4972 -103.038 -1222.37)" gradientUnits="userSpaceOnUse"><stop offset="0" stop-color="#1c1911"/><stop offset=".999" stop-color="#171714"/></radialGradient><path fill="url(#x)" d="M21.12 30.938c-.169 0-.267.104-.184.188.618.624 2.032.812 3.064.812 1.121 0 2.446-.188 3.064-.812.083-.084-.015-.188-.184-.188a73.267 73.267 0 0 1-5.76 0z"/><linearGradient id="y" x1="28.96" x2="28.96" y1="28.116" y2="50.402" gradientTransform="matrix(.9615 0 0 1 -3.846 0)" gradientUnits="userSpaceOnUse"><stop offset="0" stop-color="#e6e6e6"/><stop offset=".232" stop-color="#dedede"/><stop offset=".586" stop-color="#c9c9c9"/><stop offset=".999" stop-color="#a9a8a8"/></linearGradient><path fill="url(#y)" d="M40.571 28H7.429c-.746 0-1.312.673-1.184 1.408L9.133 46h29.733l2.888-16.592A1.2 1.2 0 0 0 40.571 28z"/><linearGradient id="z" x1="28.975" x2="28.975" y1="23.738" y2="44.786" gradientTransform="matrix(.9615 0 0 1 -3.846 0)" gradientUnits="userSpaceOnUse"><stop offset="0" stop-color="#dedede"/><stop offset=".173" stop-color="#d6d6d6"/><stop offset=".438" stop-color="#c1c1c1"/><stop offset=".759" stop-color="#9e9e9e"/><stop offset=".999" stop-color="gray"/></linearGradient><path fill="url(#z)" d="M40.887 29H7.142a.804.804 0 0 0-.792.941L9.133 46h29.733l2.812-16.058a.802.802 0 0 0-.791-.942z"/><linearGradient id="A" x1="23.792" x2="23.792" y1="44.004" y2="34.606" gradientUnits="userSpaceOnUse"><stop offset=".002" stop-color="#90bcfc"/><stop offset=".378" stop-color="#709cdc"/><stop offset=".981" stop-color="#416dac"/></linearGradient><ellipse cx="23.792" cy="38.292" fill="url(#A)" rx="3.458" ry="2.268"/></svg>